+ filenameToUse=/home/horvathandras/vatic/vatic/public/videouploads/DJI_0447_sok_ragas_vaskut_20180608_napos_napraforgo_T3.avi
+ filenameNoDot=DJI_0447_sok_ragas_vaskut_20180608_napos_napraforgo_T3
+ FullUploadPath=/home/horvathandras/vatic/vatic/public/videouploads/DJI_0447_sok_ragas_vaskut_20180608_napos_napraforgo_T3.avi
+ VideoDataDir=/home/horvathandras/vatic/vatic/videos
+ AvailableObjectTypes='PozitívROI NegatívROI Túrás ~Friss ~1-2Hetes ~Régebbi ~Egyéb1 ~Egyéb2 ~Egyéb3 Rágás ~Friss ~1-2Hetes ~Régebbi ~Egyéb1 ~Egyéb2 ~Egyéb3 Törés ~Friss ~1-2Hetes ~Régebbi ~Egyéb1 ~Egyéb2 ~Egyéb3 Taposás ~Friss ~1-2Hetes ~Régebbi ~Egyéb1 ~Egyéb2 ~Egyéb3 EgészségesNövény Egyéb1 Egyéb2 Egyéb3 Egyéb4 Egyéb5 Bizonytalan Művelőút Gktaposás Vetőhiba Széldöntés Jégkár Belvíz Aszály Erózió EgyszikűGyom KétszikűGyom EgyébNövvédelmiPR'
++ dirname /home/horvathandras/vatic/vatic/vatic_publisher.sh
+ cd /home/horvathandras/vatic/vatic
+ touch /home/horvathandras/vatic/vatic/public/videouploads/DJI_0447_sok_ragas_vaskut_20180608_napos_napraforgo_T3.avi
+ chmod 744 /home/horvathandras/vatic/vatic/public/videouploads/DJI_0447_sok_ragas_vaskut_20180608_napos_napraforgo_T3.avi
+ mkdir /home/horvathandras/vatic/vatic/videos/DJI_0447_sok_ragas_vaskut_20180608_napos_napraforgo_T3
+ turkic extract /home/horvathandras/vatic/vatic/public/videouploads/DJI_0447_sok_ragas_vaskut_20180608_napos_napraforgo_T3.avi /home/horvathandras/vatic/vatic/videos/DJI_0447_sok_ragas_vaskut_20180608_napos_napraforgo_T3 --no-resize
ffmpeg version 2.8.14-0ubuntu0.16.04.1 Copyright (c) 2000-2018 the FFmpeg developers
  built with gcc 5.4.0 (Ubuntu 5.4.0-6ubuntu1~16.04.9) 20160609
  configuration: --prefix=/usr --extra-version=0ubuntu0.16.04.1 --build-suffix=-ffmpeg --toolchain=hardened --libdir=/usr/lib/x86_64-linux-gnu --incdir=/usr/include/x86_64-linux-gnu --cc=cc --cxx=g++ --enable-gpl --enable-shared --disable-stripping --disable-decoder=libopenjpeg --disable-decoder=libschroedinger --enable-avresample --enable-avisynth --enable-gnutls --enable-ladspa --enable-libass --enable-libbluray --enable-libbs2b --enable-libcaca --enable-libcdio --enable-libflite --enable-libfontconfig --enable-libfreetype --enable-libfribidi --enable-libgme --enable-libgsm --enable-libmodplug --enable-libmp3lame --enable-libopenjpeg --enable-libopus --enable-libpulse --enable-librtmp --enable-libschroedinger --enable-libshine --enable-libsnappy --enable-libsoxr --enable-libspeex --enable-libssh --enable-libtheora --enable-libtwolame --enable-libvorbis --enable-libvpx --enable-libwavpack --enable-libwebp --enable-libx265 --enable-libxvid --enable-libzvbi --enable-openal --enable-opengl --enable-x11grab --enable-libdc1394 --enable-libiec61883 --enable-libzmq --enable-frei0r --enable-libx264 --enable-libopencv
  libavutil      54. 31.100 / 54. 31.100
  libavcodec     56. 60.100 / 56. 60.100
  libavformat    56. 40.101 / 56. 40.101
  libavdevice    56.  4.100 / 56.  4.100
  libavfilter     5. 40.101 /  5. 40.101
  libavresample   2.  1.  0 /  2.  1.  0
  libswscale      3.  1.101 /  3.  1.101
  libswresample   1.  2.101 /  1.  2.101
  libpostproc    53.  3.100 / 53.  3.100
Input #0, mov,mp4,m4a,3gp,3g2,mj2, from '/home/horvathandras/vatic/vatic/public/videouploads/DJI_0447_sok_ragas_vaskut_20180608_napos_napraforgo_T3.avi':
  Metadata:
    major_brand     : qt  
    minor_version   : 537986816
    compatible_brands: qt  
    creation_time   : 2018-06-08 07:33:52
    location        : +46.091413+18.980318+30.500
    location-{    : +46.091413+18.980318+30.500
    comment         : DE=None, Mode=P, DSW=0001
  Duration: 00:00:20.64, start: 0.000000, bitrate: 101181 kb/s
    Stream #0:0(eng): Video: h264 (High) (avc1 / 0x31637661), yuv420p(tv, bt709), 4096x2160 [SAR 1:1 DAR 256:135], 100977 kb/s, 50 fps, 50 tbr, 50k tbn, 100 tbc (default)
    Metadata:
      creation_time   : 2018-06-08 07:33:52
      handler_name    : DJI.AVC
      encoder         : AVC encoder
    Stream #0:1(eng): Data: none (priv / 0x76697270), 187 kb/s
    Metadata:
      creation_time   : 2018-06-08 07:33:52
      handler_name    : DJI.Meta
Please use -b:a or -b:v, -b is ambiguous
[swscaler @ 0x233dd00] deprecated pixel format used, make sure you did set range correctly
Output #0, image2, to '/tmp/pyvision-ffmpeg-429420887/%d.jpg':
  Metadata:
    major_brand     : qt  
    minor_version   : 537986816
    compatible_brands: qt  
    comment         : DE=None, Mode=P, DSW=0001
    location        : +46.091413+18.980318+30.500
    location-{    : +46.091413+18.980318+30.500
    encoder         : Lavf56.40.101
    Stream #0:0(eng): Video: mjpeg, yuvj420p(pc), 4096x2160 [SAR 1:1 DAR 256:135], q=2-31, 10000 kb/s, 50 fps, 50 tbn, 50 tbc (default)
    Metadata:
      creation_time   : 2018-06-08 07:33:52
      handler_name    : DJI.AVC
      encoder         : Lavc56.60.100 mjpeg
Stream mapping:
  Stream #0:0 -> #0:0 (h264 (native) -> mjpeg (native))
Press [q] to stop, [?] for help
frame=    1 fps=0.0 q=18.8 size=N/A time=00:00:00.02 bitrate=N/A    frame=    5 fps=4.4 q=24.8 size=N/A time=00:00:00.10 bitrate=N/A    frame=    9 fps=5.5 q=24.8 size=N/A time=00:00:00.18 bitrate=N/A    frame=   14 fps=6.3 q=24.8 size=N/A time=00:00:00.28 bitrate=N/A    frame=   19 fps=6.8 q=24.8 size=N/A time=00:00:00.38 bitrate=N/A    frame=   24 fps=7.1 q=24.8 size=N/A time=00:00:00.48 bitrate=N/A    frame=   29 fps=7.3 q=24.8 size=N/A time=00:00:00.58 bitrate=N/A    frame=   32 fps=7.1 q=24.8 size=N/A time=00:00:00.64 bitrate=N/A    frame=   37 fps=7.3 q=24.8 size=N/A time=00:00:00.74 bitrate=N/A    frame=   42 fps=7.4 q=24.8 size=N/A time=00:00:00.84 bitrate=N/A    frame=   47 fps=7.5 q=24.8 size=N/A time=00:00:00.94 bitrate=N/A    frame=   52 fps=7.6 q=24.8 size=N/A time=00:00:01.04 bitrate=N/A    frame=   57 fps=7.7 q=24.8 size=N/A time=00:00:01.14 bitrate=N/A    frame=   61 fps=7.7 q=24.8 size=N/A time=00:00:01.22 bitrate=N/A    frame=   66 fps=7.8 q=24.8 size=N/A time=00:00:01.32 bitrate=N/A    frame=   71 fps=7.8 q=24.8 size=N/A time=00:00:01.42 bitrate=N/A    frame=   76 fps=7.8 q=24.8 size=N/A time=00:00:01.52 bitrate=N/A    frame=   81 fps=7.9 q=24.8 size=N/A time=00:00:01.62 bitrate=N/A    frame=   85 fps=7.9 q=24.8 size=N/A time=00:00:01.70 bitrate=N/A    frame=   88 fps=7.7 q=24.8 size=N/A time=00:00:01.76 bitrate=N/A    frame=   93 fps=7.8 q=24.8 size=N/A time=00:00:01.86 bitrate=N/A    frame=   98 fps=7.8 q=24.8 size=N/A time=00:00:01.96 bitrate=N/A    frame=  103 fps=7.8 q=24.8 size=N/A time=00:00:02.06 bitrate=N/A    frame=  108 fps=7.9 q=24.8 size=N/A time=00:00:02.16 bitrate=N/A    frame=  113 fps=7.9 q=24.8 size=N/A time=00:00:02.26 bitrate=N/A    frame=  118 fps=7.9 q=24.8 size=N/A time=00:00:02.36 bitrate=N/A    frame=  122 fps=7.9 q=24.8 size=N/A time=00:00:02.44 bitrate=N/A    frame=  127 fps=7.9 q=24.8 size=N/A time=00:00:02.54 bitrate=N/A    frame=  132 fps=8.0 q=24.8 size=N/A time=00:00:02.64 bitrate=N/A    frame=  137 fps=8.0 q=24.8 size=N/A time=00:00:02.74 bitrate=N/A    frame=  142 fps=8.0 q=24.8 size=N/A time=00:00:02.84 bitrate=N/A    frame=  147 fps=8.0 q=24.8 size=N/A time=00:00:02.94 bitrate=N/A    frame=  152 fps=8.0 q=24.8 size=N/A time=00:00:03.04 bitrate=N/A    frame=  157 fps=8.1 q=24.8 size=N/A time=00:00:03.14 bitrate=N/A    frame=  162 fps=8.1 q=24.8 size=N/A time=00:00:03.24 bitrate=N/A    frame=  167 fps=8.1 q=24.8 size=N/A time=00:00:03.34 bitrate=N/A    frame=  172 fps=8.1 q=24.8 size=N/A time=00:00:03.44 bitrate=N/A    frame=  177 fps=8.1 q=24.8 size=N/A time=00:00:03.54 bitrate=N/A    frame=  181 fps=8.1 q=24.8 size=N/A time=00:00:03.62 bitrate=N/A    frame=  186 fps=8.1 q=24.8 size=N/A time=00:00:03.72 bitrate=N/A    frame=  191 fps=8.2 q=24.8 size=N/A time=00:00:03.82 bitrate=N/A    frame=  196 fps=8.2 q=24.8 size=N/A time=00:00:03.92 bitrate=N/A    frame=  201 fps=8.2 q=24.8 size=N/A time=00:00:04.02 bitrate=N/A    frame=  206 fps=8.2 q=24.8 size=N/A time=00:00:04.12 bitrate=N/A    frame=  210 fps=8.2 q=24.8 size=N/A time=00:00:04.20 bitrate=N/A    frame=  215 fps=8.2 q=24.8 size=N/A time=00:00:04.30 bitrate=N/A    frame=  220 fps=8.2 q=24.8 size=N/A time=00:00:04.40 bitrate=N/A    frame=  225 fps=8.2 q=24.8 size=N/A time=00:00:04.50 bitrate=N/A    frame=  230 fps=8.2 q=24.8 size=N/A time=00:00:04.60 bitrate=N/A    frame=  235 fps=8.2 q=24.8 size=N/A time=00:00:04.70 bitrate=N/A    frame=  240 fps=8.2 q=24.8 size=N/A time=00:00:04.80 bitrate=N/A    frame=  245 fps=8.3 q=24.8 size=N/A time=00:00:04.90 bitrate=N/A    frame=  250 fps=8.3 q=24.8 size=N/A time=00:00:05.00 bitrate=N/A    frame=  255 fps=8.3 q=24.8 size=N/A time=00:00:05.10 bitrate=N/A    frame=  259 fps=8.3 q=24.8 size=N/A time=00:00:05.18 bitrate=N/A    frame=  264 fps=8.3 q=24.8 size=N/A time=00:00:05.28 bitrate=N/A    frame=  268 fps=8.3 q=24.8 size=N/A time=00:00:05.36 bitrate=N/A    frame=  273 fps=8.3 q=24.8 size=N/A time=00:00:05.46 bitrate=N/A    frame=  278 fps=8.3 q=24.8 size=N/A time=00:00:05.56 bitrate=N/A    frame=  283 fps=8.3 q=24.8 size=N/A time=00:00:05.66 bitrate=N/A    frame=  288 fps=8.3 q=24.8 size=N/A time=00:00:05.76 bitrate=N/A    frame=  293 fps=8.3 q=24.8 size=N/A time=00:00:05.86 bitrate=N/A    frame=  298 fps=8.3 q=24.8 size=N/A time=00:00:05.96 bitrate=N/A    frame=  303 fps=8.3 q=24.8 size=N/A time=00:00:06.06 bitrate=N/A    frame=  308 fps=8.3 q=24.8 size=N/A time=00:00:06.16 bitrate=N/A    frame=  313 fps=8.3 q=24.8 size=N/A time=00:00:06.26 bitrate=N/A    frame=  318 fps=8.3 q=24.8 size=N/A time=00:00:06.36 bitrate=N/A    frame=  323 fps=8.3 q=24.8 size=N/A time=00:00:06.46 bitrate=N/A    frame=  328 fps=8.3 q=24.8 size=N/A time=00:00:06.56 bitrate=N/A    frame=  333 fps=8.3 q=24.8 size=N/A time=00:00:06.66 bitrate=N/A    frame=  338 fps=8.3 q=24.8 size=N/A time=00:00:06.76 bitrate=N/A    frame=  343 fps=8.3 q=24.8 size=N/A time=00:00:06.86 bitrate=N/A    frame=  348 fps=8.3 q=24.8 size=N/A time=00:00:06.96 bitrate=N/A    frame=  353 fps=8.4 q=24.8 size=N/A time=00:00:07.06 bitrate=N/A    frame=  358 fps=8.4 q=24.8 size=N/A time=00:00:07.16 bitrate=N/A    frame=  363 fps=8.4 q=24.8 size=N/A time=00:00:07.26 bitrate=N/A    frame=  368 fps=8.4 q=24.8 size=N/A time=00:00:07.36 bitrate=N/A    frame=  373 fps=8.4 q=24.8 size=N/A time=00:00:07.46 bitrate=N/A    frame=  378 fps=8.4 q=24.8 size=N/A time=00:00:07.56 bitrate=N/A    frame=  383 fps=8.4 q=24.8 size=N/A time=00:00:07.66 bitrate=N/A    frame=  387 fps=8.4 q=24.8 size=N/A time=00:00:07.74 bitrate=N/A    frame=  392 fps=8.4 q=24.8 size=N/A time=00:00:07.84 bitrate=N/A    frame=  397 fps=8.4 q=24.8 size=N/A time=00:00:07.94 bitrate=N/A    frame=  402 fps=8.4 q=24.8 size=N/A time=00:00:08.04 bitrate=N/A    frame=  407 fps=8.4 q=24.8 size=N/A time=00:00:08.14 bitrate=N/A    frame=  412 fps=8.4 q=24.8 size=N/A time=00:00:08.24 bitrate=N/A    frame=  417 fps=8.4 q=24.8 size=N/A time=00:00:08.34 bitrate=N/A    frame=  422 fps=8.4 q=24.8 size=N/A time=00:00:08.44 bitrate=N/A    frame=  427 fps=8.4 q=24.8 size=N/A time=00:00:08.54 bitrate=N/A    frame=  432 fps=8.4 q=24.8 size=N/A time=00:00:08.64 bitrate=N/A    frame=  437 fps=8.4 q=24.8 size=N/A time=00:00:08.74 bitrate=N/A    frame=  442 fps=8.4 q=24.8 size=N/A time=00:00:08.84 bitrate=N/A    frame=  447 fps=8.4 q=24.8 size=N/A time=00:00:08.94 bitrate=N/A    frame=  451 fps=8.4 q=24.8 size=N/A time=00:00:09.02 bitrate=N/A    frame=  455 fps=8.4 q=24.8 size=N/A time=00:00:09.10 bitrate=N/A    frame=  458 fps=8.4 q=24.8 size=N/A time=00:00:09.16 bitrate=N/A    frame=  462 fps=8.4 q=24.8 size=N/A time=00:00:09.24 bitrate=N/A    frame=  466 fps=8.3 q=24.8 size=N/A time=00:00:09.32 bitrate=N/A    frame=  470 fps=8.3 q=24.8 size=N/A time=00:00:09.40 bitrate=N/A    frame=  475 fps=8.3 q=24.8 size=N/A time=00:00:09.50 bitrate=N/A    frame=  480 fps=8.4 q=24.8 size=N/A time=00:00:09.60 bitrate=N/A    frame=  485 fps=8.4 q=24.8 size=N/A time=00:00:09.70 bitrate=N/A    frame=  490 fps=8.4 q=24.8 size=N/A time=00:00:09.80 bitrate=N/A    frame=  495 fps=8.4 q=24.8 size=N/A time=00:00:09.90 bitrate=N/A    frame=  500 fps=8.4 q=24.8 size=N/A time=00:00:10.00 bitrate=N/A    frame=  505 fps=8.4 q=24.8 size=N/A time=00:00:10.10 bitrate=N/A    frame=  510 fps=8.4 q=24.8 size=N/A time=00:00:10.20 bitrate=N/A    frame=  515 fps=8.4 q=24.8 size=N/A time=00:00:10.30 bitrate=N/A    frame=  520 fps=8.4 q=24.8 size=N/A time=00:00:10.40 bitrate=N/A    frame=  525 fps=8.4 q=24.8 size=N/A time=00:00:10.50 bitrate=N/A    frame=  530 fps=8.4 q=24.8 size=N/A time=00:00:10.60 bitrate=N/A    frame=  535 fps=8.4 q=24.8 size=N/A time=00:00:10.70 bitrate=N/A    frame=  539 fps=8.4 q=24.8 size=N/A time=00:00:10.78 bitrate=N/A    frame=  544 fps=8.4 q=24.8 size=N/A time=00:00:10.88 bitrate=N/A    frame=  549 fps=8.4 q=24.8 size=N/A time=00:00:10.98 bitrate=N/A    frame=  554 fps=8.4 q=24.8 size=N/A time=00:00:11.08 bitrate=N/A    frame=  559 fps=8.4 q=24.8 size=N/A time=00:00:11.18 bitrate=N/A    frame=  564 fps=8.4 q=24.8 size=N/A time=00:00:11.28 bitrate=N/A    frame=  569 fps=8.4 q=24.8 size=N/A time=00:00:11.38 bitrate=N/A    frame=  574 fps=8.4 q=24.8 size=N/A time=00:00:11.48 bitrate=N/A    frame=  579 fps=8.4 q=24.8 size=N/A time=00:00:11.58 bitrate=N/A    frame=  584 fps=8.4 q=24.8 size=N/A time=00:00:11.68 bitrate=N/A    frame=  589 fps=8.4 q=24.8 size=N/A time=00:00:11.78 bitrate=N/A    frame=  594 fps=8.4 q=24.8 size=N/A time=00:00:11.88 bitrate=N/A    frame=  599 fps=8.4 q=24.8 size=N/A time=00:00:11.98 bitrate=N/A    frame=  604 fps=8.4 q=24.8 size=N/A time=00:00:12.08 bitrate=N/A    frame=  609 fps=8.4 q=24.8 size=N/A time=00:00:12.18 bitrate=N/A    frame=  614 fps=8.4 q=24.8 size=N/A time=00:00:12.28 bitrate=N/A    frame=  619 fps=8.4 q=24.8 size=N/A time=00:00:12.38 bitrate=N/A    frame=  624 fps=8.4 q=24.8 size=N/A time=00:00:12.48 bitrate=N/A    frame=  629 fps=8.4 q=24.8 size=N/A time=00:00:12.58 bitrate=N/A    frame=  634 fps=8.4 q=24.8 size=N/A time=00:00:12.68 bitrate=N/A    frame=  639 fps=8.4 q=24.8 size=N/A time=00:00:12.78 bitrate=N/A    frame=  644 fps=8.4 q=24.8 size=N/A time=00:00:12.88 bitrate=N/A    frame=  649 fps=8.4 q=24.8 size=N/A time=00:00:12.98 bitrate=N/A    frame=  654 fps=8.4 q=24.8 size=N/A time=00:00:13.08 bitrate=N/A    frame=  658 fps=8.4 q=24.8 size=N/A time=00:00:13.16 bitrate=N/A    frame=  663 fps=8.4 q=24.8 size=N/A time=00:00:13.26 bitrate=N/A    frame=  668 fps=8.4 q=24.8 size=N/A time=00:00:13.36 bitrate=N/A    frame=  673 fps=8.4 q=24.8 size=N/A time=00:00:13.46 bitrate=N/A    frame=  678 fps=8.4 q=24.8 size=N/A time=00:00:13.56 bitrate=N/A    frame=  683 fps=8.4 q=24.8 size=N/A time=00:00:13.66 bitrate=N/A    frame=  687 fps=8.4 q=24.8 size=N/A time=00:00:13.74 bitrate=N/A    frame=  691 fps=8.4 q=24.8 size=N/A time=00:00:13.82 bitrate=N/A    frame=  696 fps=8.4 q=24.8 size=N/A time=00:00:13.92 bitrate=N/A    frame=  701 fps=8.4 q=24.8 size=N/A time=00:00:14.02 bitrate=N/A    frame=  706 fps=8.4 q=24.8 size=N/A time=00:00:14.12 bitrate=N/A    frame=  711 fps=8.4 q=24.8 size=N/A time=00:00:14.22 bitrate=N/A    frame=  715 fps=8.4 q=24.8 size=N/A time=00:00:14.30 bitrate=N/A    frame=  720 fps=8.4 q=24.8 size=N/A time=00:00:14.40 bitrate=N/A    frame=  725 fps=8.4 q=24.8 size=N/A time=00:00:14.50 bitrate=N/A    frame=  730 fps=8.4 q=24.8 size=N/A time=00:00:14.60 bitrate=N/A    frame=  735 fps=8.4 q=24.8 size=N/A time=00:00:14.70 bitrate=N/A    frame=  740 fps=8.4 q=24.8 size=N/A time=00:00:14.80 bitrate=N/A    frame=  744 fps=8.4 q=24.8 size=N/A time=00:00:14.88 bitrate=N/A    frame=  749 fps=8.4 q=24.8 size=N/A time=00:00:14.98 bitrate=N/A    frame=  754 fps=8.4 q=24.8 size=N/A time=00:00:15.08 bitrate=N/A    frame=  759 fps=8.4 q=24.8 size=N/A time=00:00:15.18 bitrate=N/A    frame=  764 fps=8.4 q=24.8 size=N/A time=00:00:15.28 bitrate=N/A    frame=  769 fps=8.4 q=24.8 size=N/A time=00:00:15.38 bitrate=N/A    frame=  774 fps=8.4 q=24.8 size=N/A time=00:00:15.48 bitrate=N/A    frame=  779 fps=8.4 q=24.8 size=N/A time=00:00:15.58 bitrate=N/A    frame=  783 fps=8.4 q=24.8 size=N/A time=00:00:15.66 bitrate=N/A    frame=  788 fps=8.4 q=24.8 size=N/A time=00:00:15.76 bitrate=N/A    frame=  793 fps=8.4 q=24.8 size=N/A time=00:00:15.86 bitrate=N/A    frame=  798 fps=8.4 q=24.8 size=N/A time=00:00:15.96 bitrate=N/A    frame=  803 fps=8.4 q=24.8 size=N/A time=00:00:16.06 bitrate=N/A    frame=  808 fps=8.4 q=24.8 size=N/A time=00:00:16.16 bitrate=N/A    frame=  813 fps=8.4 q=24.8 size=N/A time=00:00:16.26 bitrate=N/A    frame=  818 fps=8.4 q=24.8 size=N/A time=00:00:16.36 bitrate=N/A    frame=  823 fps=8.5 q=24.8 size=N/A time=00:00:16.46 bitrate=N/A    frame=  828 fps=8.5 q=24.8 size=N/A time=00:00:16.56 bitrate=N/A    frame=  832 fps=8.5 q=24.8 size=N/A time=00:00:16.64 bitrate=N/A    frame=  837 fps=8.5 q=24.8 size=N/A time=00:00:16.74 bitrate=N/A    frame=  841 fps=8.5 q=24.8 size=N/A time=00:00:16.82 bitrate=N/A    frame=  846 fps=8.5 q=24.8 size=N/A time=00:00:16.92 bitrate=N/A    frame=  851 fps=8.5 q=24.8 size=N/A time=00:00:17.02 bitrate=N/A    frame=  856 fps=8.5 q=24.8 size=N/A time=00:00:17.12 bitrate=N/A    frame=  861 fps=8.5 q=24.8 size=N/A time=00:00:17.22 bitrate=N/A    frame=  866 fps=8.5 q=24.8 size=N/A time=00:00:17.32 bitrate=N/A    frame=  871 fps=8.5 q=24.8 size=N/A time=00:00:17.42 bitrate=N/A    frame=  876 fps=8.5 q=24.8 size=N/A time=00:00:17.52 bitrate=N/A    frame=  881 fps=8.5 q=24.8 size=N/A time=00:00:17.62 bitrate=N/A    frame=  886 fps=8.5 q=24.8 size=N/A time=00:00:17.72 bitrate=N/A    frame=  891 fps=8.5 q=24.8 size=N/A time=00:00:17.82 bitrate=N/A    frame=  896 fps=8.5 q=24.8 size=N/A time=00:00:17.92 bitrate=N/A    frame=  900 fps=8.5 q=24.8 size=N/A time=00:00:18.00 bitrate=N/A    frame=  904 fps=8.5 q=24.8 size=N/A time=00:00:18.08 bitrate=N/A    frame=  909 fps=8.5 q=24.8 size=N/A time=00:00:18.18 bitrate=N/A    frame=  914 fps=8.5 q=24.8 size=N/A time=00:00:18.28 bitrate=N/A    frame=  919 fps=8.5 q=24.8 size=N/A time=00:00:18.38 bitrate=N/A    frame=  923 fps=8.5 q=24.8 size=N/A time=00:00:18.46 bitrate=N/A    frame=  927 fps=8.5 q=24.8 size=N/A time=00:00:18.54 bitrate=N/A    frame=  931 fps=8.4 q=24.8 size=N/A time=00:00:18.62 bitrate=N/A    frame=  935 fps=8.4 q=24.8 size=N/A time=00:00:18.70 bitrate=N/A    frame=  939 fps=8.4 q=24.8 size=N/A time=00:00:18.78 bitrate=N/A    frame=  943 fps=8.4 q=24.8 size=N/A time=00:00:18.86 bitrate=N/A    frame=  947 fps=8.4 q=24.8 size=N/A time=00:00:18.94 bitrate=N/A    frame=  951 fps=8.4 q=24.8 size=N/A time=00:00:19.02 bitrate=N/A    frame=  955 fps=8.4 q=24.8 size=N/A time=00:00:19.10 bitrate=N/A    frame=  959 fps=8.4 q=24.8 size=N/A time=00:00:19.18 bitrate=N/A    frame=  963 fps=8.4 q=24.8 size=N/A time=00:00:19.26 bitrate=N/A    frame=  967 fps=8.4 q=24.8 size=N/A time=00:00:19.34 bitrate=N/A    frame=  972 fps=8.4 q=24.8 size=N/A time=00:00:19.44 bitrate=N/A    frame=  976 fps=8.4 q=24.8 size=N/A time=00:00:19.52 bitrate=N/A    frame=  980 fps=8.4 q=24.8 size=N/A time=00:00:19.60 bitrate=N/A    frame=  984 fps=8.4 q=24.8 size=N/A time=00:00:19.68 bitrate=N/A    frame=  988 fps=8.4 q=24.8 size=N/A time=00:00:19.76 bitrate=N/A    frame=  991 fps=8.4 q=24.8 size=N/A time=00:00:19.82 bitrate=N/A    frame=  996 fps=8.3 q=24.8 size=N/A time=00:00:19.92 bitrate=N/A    frame= 1000 fps=8.3 q=24.8 size=N/A time=00:00:20.00 bitrate=N/A    frame= 1004 fps=8.3 q=24.8 size=N/A time=00:00:20.08 bitrate=N/A    frame= 1009 fps=8.3 q=24.8 size=N/A time=00:00:20.18 bitrate=N/A    frame= 1013 fps=8.3 q=24.8 size=N/A time=00:00:20.26 bitrate=N/A    frame= 1017 fps=8.3 q=24.8 size=N/A time=00:00:20.34 bitrate=N/A    frame= 1021 fps=8.3 q=24.8 size=N/A time=00:00:20.42 bitrate=N/A    frame= 1025 fps=8.3 q=24.8 size=N/A time=00:00:20.50 bitrate=N/A    frame= 1030 fps=8.3 q=24.8 size=N/A time=00:00:20.60 bitrate=N/A    frame= 1032 fps=8.3 q=24.8 Lsize=N/A time=00:00:20.64 bitrate=N/A    
video:802837kB audio:0kB subtitle:0kB other streams:0kB global headers:0kB muxing overhead: unknown
+ turkic load DJI_0447_sok_ragas_vaskut_20180608_napos_napraforgo_T3 /home/horvathandras/vatic/vatic/videos/DJI_0447_sok_ragas_vaskut_20180608_napos_napraforgo_T3 $'Pozit\303\255vROI' $'Negat\303\255vROI' $'T\303\272r\303\241s' '~Friss' '~1-2Hetes' '~Régebbi' '~Egyéb1' '~Egyéb2' '~Egyéb3' $'R\303\241g\303\241s' '~Friss' '~1-2Hetes' '~Régebbi' '~Egyéb1' '~Egyéb2' '~Egyéb3' $'T\303\266r\303\251s' '~Friss' '~1-2Hetes' '~Régebbi' '~Egyéb1' '~Egyéb2' '~Egyéb3' $'Tapos\303\241s' '~Friss' '~1-2Hetes' '~Régebbi' '~Egyéb1' '~Egyéb2' '~Egyéb3' $'Eg\303\251szs\303\251gesN\303\266v\303\251ny' $'Egy\303\251b1' $'Egy\303\251b2' $'Egy\303\251b3' $'Egy\303\251b4' $'Egy\303\251b5' Bizonytalan $'M\305\261vel\305\221\303\272t' $'Gktapos\303\241s' $'Vet\305\221hiba' $'Sz\303\251ld\303\266nt\303\251s' $'J\303\251gk\303\241r' $'Belv\303\255z' $'Asz\303\241ly' $'Er\303\263zi\303\263' $'Egyszik\305\261Gyom' $'K\303\251tszik\305\261Gyom' $'Egy\303\251bN\303\266vv\303\251delmiPR' --offline --title '$filenameNoDot Video' --length 1000 --description 'vatic annotation'
+ turkic publish --offline
+ mkdir /home/horvathandras/vatic/vatic/public/videothumbnails/DJI_0447_sok_ragas_vaskut_20180608_napos_napraforgo_T3
+ cp /home/horvathandras/vatic/vatic/videos/DJI_0447_sok_ragas_vaskut_20180608_napos_napraforgo_T3/0/0/31.jpg /home/horvathandras/vatic/vatic/public/videothumbnails/DJI_0447_sok_ragas_vaskut_20180608_napos_napraforgo_T3/thumb.jpg
